<svg width="81" height="81" viewBox="0 0 81 81" version="1.1" xmlns="http://www.w3.org/2000/svg" xmlns:xlink="http://www.w3.org/1999/xlink">
<g id="Canvas" fill="none">
<g id="Logomark/Raidar">
<g id="Subtract">
<path fill-rule="evenodd" clip-rule="evenodd" d="M 40.5 81C 62.8677 81 81 62.8675 81 40.5C 81 18.1325 62.8677 0 40.5 0C 18.1323 0 0 18.1325 0 40.5C 0 62.8675 18.1323 81 40.5 81ZM 32.8413 21.9979C 33.2217 21.9935 33.6079 21.9882 34 21.982L 34 21.9851C 34.5396 21.9765 35.0898 21.9661 35.6509 21.9539L 35.7661 21.9514L 35.7842 21.9509C 36.4131 21.9339 36.9619 21.9204 37.4302 21.9104L 38.04 21.8932L 38.5806 21.877L 38.5806 21.891L 38.9463 21.8889L 39.5039 25.6089L 39.1318 26.1049C 39.0078 26.1049 38.7393 26.0843 38.3262 26.0429C 38.1929 26.0296 38.0581 26.0185 37.9209 26.0094C 37.8369 26.0039 37.752 25.9992 37.6665 25.9953C 37.457 25.9857 37.2432 25.9809 37.0239 25.9809C 36.2388 25.9809 35.7222 26.1876 35.4741 26.6009C 35.1846 27.0143 35.04 27.8203 35.04 29.019L 35.0122 58.3535C 35.0122 58.4721 35.0137 58.5883 35.0161 58.7022L 35.0234 58.9228C 35.0278 59.0272 35.0332 59.1294 35.04 59.2295L 33.9722 59.2295L 35.0371 59.2325C 34.5371 61.8992 32.6514 66.6381 30.6514 67.6381C 28.6514 66.6381 26.7329 61.8936 26.3999 59.2269L 26.4082 59.2295C 26.4268 58.9536 26.436 58.6616 26.436 58.3535L 26.4639 29.019C 26.4639 27.8203 26.3193 27.0143 26.0303 26.6009C 25.8813 26.3531 25.6353 26.1794 25.2935 26.0801C 25.0674 26.016 24.8003 25.9839 24.4907 25.9839C 24.0361 25.9839 23.6021 26.0046 23.1885 26.0459C 22.7754 26.0872 22.5068 26.1079 22.3828 26.1079L 22.3804 26.1049L 22.3721 26.1049L 22.0107 25.6119L 22 25.6089L 22.5581 21.8889C 23.1367 21.8889 24.1904 21.9096 25.7197 21.9509C 26.1494 21.9622 26.5762 21.972 27 21.9802L 27 21.9734C 27.5264 21.9828 28.0435 21.9905 28.5498 21.9966L 28.5649 17.5623C 28.5649 16.998 28.4946 16.6218 28.3535 16.4337C 28.2124 16.2456 27.9302 16.1515 27.5068 16.1515L 26.5547 16.1515L 26.4136 15.8693L 26.5898 14.1411L 30.7871 14.1764C 31.3042 14.1764 32.0684 14.1528 33.0796 14.1058C 34.0908 14.0588 34.7607 14.0235 35.0903 14L 34.9136 16.0104C 34.1851 16.1045 33.7026 16.2456 33.4678 16.4337C 33.2559 16.6218 33.127 16.9745 33.0796 17.4918C 32.978 18.9829 32.8989 20.4849 32.8413 21.9979ZM 42.7588 27.609C 43.0059 27.7712 43.2363 27.934 43.4526 28.0919C 44.9819 29.2079 45.6328 31.2126 45.6328 33.4859C 45.6328 35.8832 45.0747 37.6606 43.9585 38.8179C 42.8428 39.9339 41.6025 40.7812 40.2388 41.3599L 38.2358 41.1374L 37.7456 41.69L 37.7656 46.1339L 38.8745 46.1339L 44.2686 57.0459C 46.0874 60.8899 48.3398 62.8119 51.0269 62.8119L 58.2808 62.1299L 58.7148 58.9059L 58.2808 58.3479C 56.958 58.3479 55.7593 57.9346 54.6846 57.1079C 53.6099 56.2812 52.4941 54.9172 51.3364 53.0159L 45.8809 44.1499C 48.5674 42.7859 50.6338 41.0912 52.0806 39.0659C 53.5273 37.0406 54.2505 34.8086 54.2505 32.3699C 54.2505 28.9392 52.9897 26.3146 50.4688 24.4959C 48.2158 22.8438 45.8706 21.972 42.3965 21.8261L 42.0654 22.3624L 42.7588 27.609Z" fill="#E7CCA9"/>
</g>
</g>
</g>
</svg>
